<mxfile host="app.diagrams.net" agent="Mozilla/5.0 (Windows NT 10.0; Win64; x64; rv:130.0) Gecko/20100101 Firefox/130.0" version="24.7.16">
  <diagram name="Page-1" id="ULfss0ntRTy0jscAQ_Bf">
    <mxGraphModel grid="1" page="1" gridSize="10" guides="1" tooltips="1" connect="1" arrows="1" fold="1" pageScale="1" pageWidth="850" pageHeight="1100" math="0" shadow="0">
      <root>
        <mxCell id="0" />
        <mxCell id="1" parent="0" />
        <mxCell id="ba0Gs8wTOZ9VH8hJFde4-1" value="&lt;div&gt;&lt;br&gt;&lt;/div&gt;&lt;div&gt;&lt;br&gt;&lt;/div&gt;&lt;div&gt;&lt;br&gt;&lt;/div&gt;" style="whiteSpace=wrap;html=1;fillColor=#f8cecc;fontSize=14;strokeColor=none;verticalAlign=top;" vertex="1" parent="1">
          <mxGeometry x="1290" y="570" width="405.35" height="366.75" as="geometry" />
        </mxCell>
        <mxCell id="ba0Gs8wTOZ9VH8hJFde4-2" value="&lt;h3&gt;Employee Network&lt;br&gt;&lt;/h3&gt; " style="whiteSpace=wrap;html=1;fillColor=#d5e8d4;fontSize=14;strokeColor=none;verticalAlign=top;" vertex="1" parent="1">
          <mxGeometry x="955" y="570" width="335" height="366.75" as="geometry" />
        </mxCell>
        <mxCell id="ba0Gs8wTOZ9VH8hJFde4-3" value="&lt;h3&gt;Customer Network&lt;br&gt;&lt;br&gt;&lt;br&gt;&lt;/h3&gt; " style="whiteSpace=wrap;html=1;fillColor=#dae8fc;fontSize=14;strokeColor=none;verticalAlign=top;" vertex="1" parent="1">
          <mxGeometry x="605" y="570" width="350" height="366.75" as="geometry" />
        </mxCell>
        <mxCell id="ba0Gs8wTOZ9VH8hJFde4-5" value="Client" style="verticalLabelPosition=bottom;aspect=fixed;html=1;verticalAlign=top;strokeColor=none;shape=mxgraph.citrix.laptop_2;fillColor=#66B2FF;gradientColor=#0066CC;fontSize=14;" vertex="1" parent="1">
          <mxGeometry x="616.9999999999999" y="790.6999999999999" width="116" height="86.5" as="geometry" />
        </mxCell>
        <mxCell id="ba0Gs8wTOZ9VH8hJFde4-6" value="Client" style="verticalLabelPosition=bottom;aspect=fixed;html=1;verticalAlign=top;strokeColor=none;shape=mxgraph.citrix.pda;fillColor=#66B2FF;gradientColor=#0066CC;fontSize=14;" vertex="1" parent="1">
          <mxGeometry x="870" y="798.3399999999999" width="30" height="61" as="geometry" />
        </mxCell>
        <mxCell id="ba0Gs8wTOZ9VH8hJFde4-7" value="Router" style="verticalLabelPosition=bottom;aspect=fixed;html=1;verticalAlign=top;strokeColor=none;shape=mxgraph.citrix.router;fillColor=#66B2FF;gradientColor=#0066CC;fontSize=14;" vertex="1" parent="1">
          <mxGeometry x="1126.71" y="324.29" width="75" height="49.77" as="geometry" />
        </mxCell>
        <mxCell id="ba0Gs8wTOZ9VH8hJFde4-9" value="Firewall" style="verticalLabelPosition=bottom;aspect=fixed;html=1;verticalAlign=top;strokeColor=none;shape=mxgraph.citrix.firewall;fillColor=#66B2FF;gradientColor=#0066CC;fontSize=14;" vertex="1" parent="1">
          <mxGeometry x="1111.71" y="188.06" width="88.71" height="110" as="geometry" />
        </mxCell>
        <mxCell id="ba0Gs8wTOZ9VH8hJFde4-11" value="Internet" style="ellipse;shape=cloud;whiteSpace=wrap;html=1;" vertex="1" parent="1">
          <mxGeometry x="1072" y="79.06" width="154" height="92" as="geometry" />
        </mxCell>
        <mxCell id="ba0Gs8wTOZ9VH8hJFde4-14" value="" style="endArrow=none;html=1;rounded=0;exitX=0;exitY=0.25;exitDx=0;exitDy=0;entryX=0.524;entryY=1.014;entryDx=0;entryDy=0;entryPerimeter=0;" edge="1" parent="1" source="ba0Gs8wTOZ9VH8hJFde4-43" target="ba0Gs8wTOZ9VH8hJFde4-7">
          <mxGeometry width="50" height="50" relative="1" as="geometry">
            <mxPoint x="1872" y="850.06" as="sourcePoint" />
            <mxPoint x="1722" y="370.06" as="targetPoint" />
          </mxGeometry>
        </mxCell>
        <mxCell id="ba0Gs8wTOZ9VH8hJFde4-16" value="" style="endArrow=none;html=1;rounded=0;exitX=1;exitY=0.5;exitDx=0;exitDy=0;entryX=0.543;entryY=1.072;entryDx=0;entryDy=0;entryPerimeter=0;" edge="1" parent="1" source="ba0Gs8wTOZ9VH8hJFde4-43" target="ba0Gs8wTOZ9VH8hJFde4-7">
          <mxGeometry width="50" height="50" relative="1" as="geometry">
            <mxPoint x="1822" y="850.06" as="sourcePoint" />
            <mxPoint x="1722" y="370.06" as="targetPoint" />
          </mxGeometry>
        </mxCell>
        <mxCell id="ba0Gs8wTOZ9VH8hJFde4-17" value="Client" style="verticalLabelPosition=bottom;aspect=fixed;html=1;verticalAlign=top;strokeColor=none;shape=mxgraph.citrix.pda;fillColor=#66B2FF;gradientColor=#0066CC;fontSize=14;" vertex="1" parent="1">
          <mxGeometry x="767.54" y="806.1999999999999" width="34.92" height="71" as="geometry" />
        </mxCell>
        <mxCell id="ba0Gs8wTOZ9VH8hJFde4-18" value="" style="endArrow=none;dashed=1;html=1;dashPattern=1 3;strokeWidth=2;rounded=0;entryX=0;entryY=0.75;entryDx=0;entryDy=0;exitX=-0.014;exitY=0.045;exitDx=0;exitDy=0;exitPerimeter=0;" edge="1" parent="1" source="ba0Gs8wTOZ9VH8hJFde4-6" target="ba0Gs8wTOZ9VH8hJFde4-21">
          <mxGeometry width="50" height="50" relative="1" as="geometry">
            <mxPoint x="1715" y="780.6999999999999" as="sourcePoint" />
            <mxPoint x="1765" y="730.6999999999999" as="targetPoint" />
          </mxGeometry>
        </mxCell>
        <mxCell id="ba0Gs8wTOZ9VH8hJFde4-19" value="" style="endArrow=none;dashed=1;html=1;dashPattern=1 3;strokeWidth=2;rounded=0;entryX=0;entryY=0.75;entryDx=0;entryDy=0;exitX=0.07;exitY=0;exitDx=0;exitDy=0;exitPerimeter=0;" edge="1" parent="1" source="ba0Gs8wTOZ9VH8hJFde4-17" target="ba0Gs8wTOZ9VH8hJFde4-21">
          <mxGeometry width="50" height="50" relative="1" as="geometry">
            <mxPoint x="1625" y="780.6999999999999" as="sourcePoint" />
            <mxPoint x="1758.65" y="658.6999999999999" as="targetPoint" />
          </mxGeometry>
        </mxCell>
        <mxCell id="ba0Gs8wTOZ9VH8hJFde4-20" value="" style="endArrow=none;dashed=1;html=1;dashPattern=1 3;strokeWidth=2;rounded=0;entryX=0;entryY=0.75;entryDx=0;entryDy=0;exitX=0.41;exitY=0.014;exitDx=0;exitDy=0;exitPerimeter=0;" edge="1" parent="1" source="ba0Gs8wTOZ9VH8hJFde4-5" target="ba0Gs8wTOZ9VH8hJFde4-21">
          <mxGeometry width="50" height="50" relative="1" as="geometry">
            <mxPoint x="1815" y="840.6999999999999" as="sourcePoint" />
            <mxPoint x="1865" y="790.6999999999999" as="targetPoint" />
          </mxGeometry>
        </mxCell>
        <mxCell id="ba0Gs8wTOZ9VH8hJFde4-21" value="WAP" style="image;html=1;image=img/lib/clip_art/networking/Wireless_Router_128x128.png" vertex="1" parent="1">
          <mxGeometry x="790" y="621.06" width="80" height="75" as="geometry" />
        </mxCell>
        <mxCell id="ba0Gs8wTOZ9VH8hJFde4-23" value="" style="endArrow=none;html=1;rounded=0;entryX=0.5;entryY=1;entryDx=0;entryDy=0;exitX=1.004;exitY=0.645;exitDx=0;exitDy=0;exitPerimeter=0;" edge="1" parent="1" source="ba0Gs8wTOZ9VH8hJFde4-24" target="ba0Gs8wTOZ9VH8hJFde4-43">
          <mxGeometry width="50" height="50" relative="1" as="geometry">
            <mxPoint x="1790" y="646.06" as="sourcePoint" />
            <mxPoint x="1840" y="616.06" as="targetPoint" />
            <Array as="points" />
          </mxGeometry>
        </mxCell>
        <mxCell id="ba0Gs8wTOZ9VH8hJFde4-24" value="WAP" style="image;html=1;image=img/lib/clip_art/networking/Wireless_Router_128x128.png" vertex="1" parent="1">
          <mxGeometry x="1060" y="626.06" width="80" height="80" as="geometry" />
        </mxCell>
        <mxCell id="ba0Gs8wTOZ9VH8hJFde4-27" value="Emplyee" style="verticalLabelPosition=bottom;aspect=fixed;html=1;verticalAlign=top;strokeColor=none;shape=mxgraph.citrix.pda;fillColor=#66B2FF;gradientColor=#0066CC;fontSize=14;" vertex="1" parent="1">
          <mxGeometry x="1220" y="760.56" width="30" height="61" as="geometry" />
        </mxCell>
        <mxCell id="ba0Gs8wTOZ9VH8hJFde4-28" value="" style="endArrow=none;dashed=1;html=1;dashPattern=1 3;strokeWidth=2;rounded=0;exitX=0.527;exitY=0.044;exitDx=0;exitDy=0;exitPerimeter=0;entryX=0.5;entryY=1;entryDx=0;entryDy=0;" edge="1" parent="1" source="ba0Gs8wTOZ9VH8hJFde4-27" target="ba0Gs8wTOZ9VH8hJFde4-24">
          <mxGeometry width="50" height="50" relative="1" as="geometry">
            <mxPoint x="1910" y="705.43" as="sourcePoint" />
            <mxPoint x="1998" y="610.43" as="targetPoint" />
          </mxGeometry>
        </mxCell>
        <mxCell id="ba0Gs8wTOZ9VH8hJFde4-30" value="" style="endArrow=none;dashed=1;html=1;dashPattern=1 3;strokeWidth=2;rounded=0;exitX=0.756;exitY=0;exitDx=0;exitDy=0;exitPerimeter=0;entryX=0.5;entryY=1;entryDx=0;entryDy=0;" edge="1" parent="1" source="ba0Gs8wTOZ9VH8hJFde4-101" target="ba0Gs8wTOZ9VH8hJFde4-24">
          <mxGeometry width="50" height="50" relative="1" as="geometry">
            <mxPoint x="1038.75" y="757.5599999999997" as="sourcePoint" />
            <mxPoint x="1829" y="666.06" as="targetPoint" />
          </mxGeometry>
        </mxCell>
        <mxCell id="ba0Gs8wTOZ9VH8hJFde4-32" value="" style="endArrow=none;html=1;rounded=0;exitX=0.5;exitY=1;exitDx=0;exitDy=0;entryX=0;entryY=0.25;entryDx=0;entryDy=0;" edge="1" parent="1" source="ba0Gs8wTOZ9VH8hJFde4-43" target="ba0Gs8wTOZ9VH8hJFde4-33">
          <mxGeometry width="50" height="50" relative="1" as="geometry">
            <mxPoint x="1353" y="590.06" as="sourcePoint" />
            <mxPoint x="1860" y="366.06" as="targetPoint" />
            <Array as="points" />
          </mxGeometry>
        </mxCell>
        <mxCell id="ba0Gs8wTOZ9VH8hJFde4-33" value="L2 switch" style="image;html=1;image=img/lib/clip_art/networking/Switch_128x128.png" vertex="1" parent="1">
          <mxGeometry x="1310" y="639.77" width="80" height="80" as="geometry" />
        </mxCell>
        <mxCell id="ba0Gs8wTOZ9VH8hJFde4-34" value="&lt;h3 style=&quot;line-height: 130%;&quot;&gt;System Network&lt;br&gt;&lt;/h3&gt;" style="text;html=1;align=center;verticalAlign=middle;resizable=0;points=[];autosize=1;strokeColor=none;fillColor=none;" vertex="1" parent="1">
          <mxGeometry x="1420" y="570" width="130" height="60" as="geometry" />
        </mxCell>
        <mxCell id="ba0Gs8wTOZ9VH8hJFde4-35" value="POS" style="image;points=[];aspect=fixed;html=1;align=center;shadow=0;dashed=0;image=img/lib/allied_telesis/computer_and_terminals/POS_keypad.svg;" vertex="1" parent="1">
          <mxGeometry x="1310" y="790.6999999999999" width="67.2" height="49.86" as="geometry" />
        </mxCell>
        <mxCell id="ba0Gs8wTOZ9VH8hJFde4-36" value="POS" style="image;points=[];aspect=fixed;html=1;align=center;shadow=0;dashed=0;image=img/lib/allied_telesis/computer_and_terminals/POS_keypad.svg;" vertex="1" parent="1">
          <mxGeometry x="1400" y="790.6999999999999" width="77.2" height="57.28" as="geometry" />
        </mxCell>
        <mxCell id="ba0Gs8wTOZ9VH8hJFde4-37" value="" style="endArrow=none;html=1;rounded=0;entryX=1;entryY=0.5;entryDx=0;entryDy=0;" edge="1" parent="1" source="ba0Gs8wTOZ9VH8hJFde4-36" target="ba0Gs8wTOZ9VH8hJFde4-33">
          <mxGeometry width="50" height="50" relative="1" as="geometry">
            <mxPoint x="2010" y="746.06" as="sourcePoint" />
            <mxPoint x="2060" y="696.06" as="targetPoint" />
          </mxGeometry>
        </mxCell>
        <mxCell id="ba0Gs8wTOZ9VH8hJFde4-38" value="" style="endArrow=none;html=1;rounded=0;entryX=1;entryY=0.5;entryDx=0;entryDy=0;exitX=0.584;exitY=0.06;exitDx=0;exitDy=0;exitPerimeter=0;" edge="1" parent="1" source="ba0Gs8wTOZ9VH8hJFde4-35" target="ba0Gs8wTOZ9VH8hJFde4-33">
          <mxGeometry width="50" height="50" relative="1" as="geometry">
            <mxPoint x="1897" y="766.06" as="sourcePoint" />
            <mxPoint x="1890" y="646.06" as="targetPoint" />
          </mxGeometry>
        </mxCell>
        <mxCell id="ba0Gs8wTOZ9VH8hJFde4-39" value="" style="endArrow=none;html=1;rounded=0;entryX=1;entryY=0.5;entryDx=0;entryDy=0;exitX=0;exitY=0.5;exitDx=0;exitDy=0;" edge="1" parent="1" source="ba0Gs8wTOZ9VH8hJFde4-98" target="ba0Gs8wTOZ9VH8hJFde4-33">
          <mxGeometry width="50" height="50" relative="1" as="geometry">
            <mxPoint x="1628.8672199999996" y="772.3922099999997" as="sourcePoint" />
            <mxPoint x="1890" y="646.06" as="targetPoint" />
          </mxGeometry>
        </mxCell>
        <mxCell id="ba0Gs8wTOZ9VH8hJFde4-43" value="L3 Switch" style="image;html=1;image=img/lib/clip_art/networking/Switch_128x128.png" vertex="1" parent="1">
          <mxGeometry x="1115" y="425.06" width="105" height="71" as="geometry" />
        </mxCell>
        <mxCell id="ba0Gs8wTOZ9VH8hJFde4-46" value="POS Server" style="image;html=1;image=img/lib/clip_art/computers/Server_128x128.png" vertex="1" parent="1">
          <mxGeometry x="1505" y="779.3399999999999" width="80" height="80" as="geometry" />
        </mxCell>
        <mxCell id="ba0Gs8wTOZ9VH8hJFde4-47" value="" style="endArrow=none;html=1;rounded=0;entryX=1;entryY=0.5;entryDx=0;entryDy=0;exitX=0;exitY=0;exitDx=0;exitDy=0;" edge="1" parent="1" source="ba0Gs8wTOZ9VH8hJFde4-46" target="ba0Gs8wTOZ9VH8hJFde4-33">
          <mxGeometry width="50" height="50" relative="1" as="geometry">
            <mxPoint x="1940" y="756.06" as="sourcePoint" />
            <mxPoint x="1990" y="706.06" as="targetPoint" />
          </mxGeometry>
        </mxCell>
        <mxCell id="ba0Gs8wTOZ9VH8hJFde4-66" value="" style="endArrow=none;html=1;rounded=0;exitX=0.676;exitY=0.062;exitDx=0;exitDy=0;exitPerimeter=0;entryX=0.543;entryY=1.072;entryDx=0;entryDy=0;entryPerimeter=0;" edge="1" parent="1" source="ba0Gs8wTOZ9VH8hJFde4-43" target="ba0Gs8wTOZ9VH8hJFde4-7">
          <mxGeometry width="50" height="50" relative="1" as="geometry">
            <mxPoint x="1723" y="424.06" as="sourcePoint" />
            <mxPoint x="1200" y="368.06" as="targetPoint" />
          </mxGeometry>
        </mxCell>
        <mxCell id="ba0Gs8wTOZ9VH8hJFde4-69" value="&lt;h1&gt;Current Network&lt;/h1&gt;" style="text;html=1;align=center;verticalAlign=middle;resizable=0;points=[];autosize=1;strokeColor=none;fillColor=none;" vertex="1" parent="1">
          <mxGeometry x="223.75" y="20" width="210" height="70" as="geometry" />
        </mxCell>
        <mxCell id="ba0Gs8wTOZ9VH8hJFde4-71" value="Internet" style="ellipse;shape=cloud;whiteSpace=wrap;html=1;" vertex="1" parent="1">
          <mxGeometry x="260" y="79.06" width="154" height="92" as="geometry" />
        </mxCell>
        <mxCell id="ba0Gs8wTOZ9VH8hJFde4-72" value="Router" style="verticalLabelPosition=bottom;aspect=fixed;html=1;verticalAlign=top;strokeColor=none;shape=mxgraph.citrix.router;fillColor=#66B2FF;gradientColor=#0066CC;fontSize=14;" vertex="1" parent="1">
          <mxGeometry x="298.25" y="260" width="77.5" height="51.43" as="geometry" />
        </mxCell>
        <mxCell id="ba0Gs8wTOZ9VH8hJFde4-74" value="WAP Customers" style="image;html=1;image=img/lib/clip_art/networking/Wireless_Router_128x128.png" vertex="1" parent="1">
          <mxGeometry x="13" y="339.09000000000003" width="80" height="80" as="geometry" />
        </mxCell>
        <mxCell id="ba0Gs8wTOZ9VH8hJFde4-75" value="" style="endArrow=none;html=1;rounded=0;entryX=0.022;entryY=0.828;entryDx=0;entryDy=0;entryPerimeter=0;exitX=0.5;exitY=0;exitDx=0;exitDy=0;" edge="1" parent="1" source="ba0Gs8wTOZ9VH8hJFde4-74" target="ba0Gs8wTOZ9VH8hJFde4-72">
          <mxGeometry width="50" height="50" relative="1" as="geometry">
            <mxPoint x="280" y="480" as="sourcePoint" />
            <mxPoint x="330" y="430" as="targetPoint" />
          </mxGeometry>
        </mxCell>
        <mxCell id="ba0Gs8wTOZ9VH8hJFde4-76" value="WAP Employees" style="image;html=1;image=img/lib/clip_art/networking/Wireless_Router_128x128.png" vertex="1" parent="1">
          <mxGeometry x="375.75" y="445.36" width="80" height="80" as="geometry" />
        </mxCell>
        <mxCell id="ba0Gs8wTOZ9VH8hJFde4-79" value="" style="endArrow=none;html=1;rounded=0;entryX=1.036;entryY=0.781;entryDx=0;entryDy=0;entryPerimeter=0;exitX=0;exitY=0.25;exitDx=0;exitDy=0;" edge="1" parent="1" source="ba0Gs8wTOZ9VH8hJFde4-76" target="ba0Gs8wTOZ9VH8hJFde4-72">
          <mxGeometry width="50" height="50" relative="1" as="geometry">
            <mxPoint x="70" y="390" as="sourcePoint" />
            <mxPoint x="137" y="293" as="targetPoint" />
          </mxGeometry>
        </mxCell>
        <mxCell id="ba0Gs8wTOZ9VH8hJFde4-80" value="POS" style="image;points=[];aspect=fixed;html=1;align=center;shadow=0;dashed=0;image=img/lib/allied_telesis/computer_and_terminals/POS_keypad.svg;" vertex="1" parent="1">
          <mxGeometry x="136.4" y="460.43" width="67.2" height="49.86" as="geometry" />
        </mxCell>
        <mxCell id="ba0Gs8wTOZ9VH8hJFde4-81" value="POS" style="image;points=[];aspect=fixed;html=1;align=center;shadow=0;dashed=0;image=img/lib/allied_telesis/computer_and_terminals/POS_keypad.svg;" vertex="1" parent="1">
          <mxGeometry x="250.0000000000001" y="460.43" width="67.2" height="49.86" as="geometry" />
        </mxCell>
        <mxCell id="ba0Gs8wTOZ9VH8hJFde4-82" value="" style="endArrow=none;html=1;rounded=0;exitX=0.451;exitY=0.023;exitDx=0;exitDy=0;exitPerimeter=0;entryX=0.041;entryY=0.744;entryDx=0;entryDy=0;entryPerimeter=0;" edge="1" parent="1" source="ba0Gs8wTOZ9VH8hJFde4-80" target="ba0Gs8wTOZ9VH8hJFde4-72">
          <mxGeometry width="50" height="50" relative="1" as="geometry">
            <mxPoint x="100" y="530" as="sourcePoint" />
            <mxPoint x="290" y="310" as="targetPoint" />
          </mxGeometry>
        </mxCell>
        <mxCell id="ba0Gs8wTOZ9VH8hJFde4-84" value="" style="endArrow=none;html=1;rounded=0;entryX=0.022;entryY=0.828;entryDx=0;entryDy=0;entryPerimeter=0;exitX=0.672;exitY=-0.034;exitDx=0;exitDy=0;exitPerimeter=0;" edge="1" parent="1" source="ba0Gs8wTOZ9VH8hJFde4-81" target="ba0Gs8wTOZ9VH8hJFde4-72">
          <mxGeometry width="50" height="50" relative="1" as="geometry">
            <mxPoint x="160" y="480" as="sourcePoint" />
            <mxPoint x="210" y="430" as="targetPoint" />
            <Array as="points" />
          </mxGeometry>
        </mxCell>
        <mxCell id="ba0Gs8wTOZ9VH8hJFde4-85" value="Employee PC" style="fontColor=#0066CC;verticalAlign=top;verticalLabelPosition=bottom;labelPosition=center;align=center;html=1;outlineConnect=0;fillColor=#CCCCCC;strokeColor=#6881B3;gradientColor=none;gradientDirection=north;strokeWidth=2;shape=mxgraph.networks.pc;" vertex="1" parent="1">
          <mxGeometry x="1090" y="770.56" width="100" height="70" as="geometry" />
        </mxCell>
        <mxCell id="ba0Gs8wTOZ9VH8hJFde4-87" value="" style="endArrow=none;html=1;rounded=0;entryX=0.28;entryY=0.5;entryDx=0;entryDy=0;entryPerimeter=0;" edge="1" parent="1" target="ba0Gs8wTOZ9VH8hJFde4-100">
          <mxGeometry width="50" height="50" relative="1" as="geometry">
            <mxPoint x="365" y="300" as="sourcePoint" />
            <mxPoint x="337" y="240.4831285750513" as="targetPoint" />
          </mxGeometry>
        </mxCell>
        <mxCell id="ba0Gs8wTOZ9VH8hJFde4-89" value="" style="fontColor=#0066CC;verticalAlign=top;verticalLabelPosition=bottom;labelPosition=center;align=center;html=1;outlineConnect=0;fillColor=#CCCCCC;strokeColor=#6881B3;gradientColor=none;gradientDirection=north;strokeWidth=2;shape=mxgraph.networks.security_camera;" vertex="1" parent="1">
          <mxGeometry x="13" y="251" width="77" height="49" as="geometry" />
        </mxCell>
        <mxCell id="ba0Gs8wTOZ9VH8hJFde4-90" value="" style="endArrow=none;html=1;rounded=0;exitX=0.88;exitY=0.5;exitDx=0;exitDy=0;exitPerimeter=0;" edge="1" parent="1" source="ba0Gs8wTOZ9VH8hJFde4-89">
          <mxGeometry width="50" height="50" relative="1" as="geometry">
            <mxPoint x="140" y="440" as="sourcePoint" />
            <mxPoint x="290" y="300" as="targetPoint" />
          </mxGeometry>
        </mxCell>
        <mxCell id="ba0Gs8wTOZ9VH8hJFde4-91" value="&lt;h1&gt;Improved Network&lt;/h1&gt;" style="text;html=1;align=center;verticalAlign=middle;resizable=0;points=[];autosize=1;strokeColor=none;fillColor=none;" vertex="1" parent="1">
          <mxGeometry x="1072.5" y="20" width="230" height="70" as="geometry" />
        </mxCell>
        <mxCell id="ba0Gs8wTOZ9VH8hJFde4-92" value="" style="endArrow=none;html=1;rounded=0;entryX=0.539;entryY=0.923;entryDx=0;entryDy=0;entryPerimeter=0;exitX=0.41;exitY=0.069;exitDx=0;exitDy=0;exitPerimeter=0;" edge="1" parent="1" source="ba0Gs8wTOZ9VH8hJFde4-7" target="ba0Gs8wTOZ9VH8hJFde4-9">
          <mxGeometry width="50" height="50" relative="1" as="geometry">
            <mxPoint x="1082" y="339.06" as="sourcePoint" />
            <mxPoint x="1132" y="289.06" as="targetPoint" />
          </mxGeometry>
        </mxCell>
        <mxCell id="ba0Gs8wTOZ9VH8hJFde4-93" value="" style="endArrow=none;html=1;rounded=0;entryX=0.55;entryY=0.95;entryDx=0;entryDy=0;entryPerimeter=0;exitX=0.505;exitY=0.066;exitDx=0;exitDy=0;exitPerimeter=0;" edge="1" parent="1" source="ba0Gs8wTOZ9VH8hJFde4-9" target="ba0Gs8wTOZ9VH8hJFde4-11">
          <mxGeometry width="50" height="50" relative="1" as="geometry">
            <mxPoint x="1292" y="179.06" as="sourcePoint" />
            <mxPoint x="1342" y="129.06" as="targetPoint" />
          </mxGeometry>
        </mxCell>
        <mxCell id="ba0Gs8wTOZ9VH8hJFde4-95" value="" style="endArrow=none;html=1;rounded=0;entryX=0.5;entryY=1;entryDx=0;entryDy=0;" edge="1" parent="1" target="ba0Gs8wTOZ9VH8hJFde4-43">
          <mxGeometry width="50" height="50" relative="1" as="geometry">
            <mxPoint x="870" y="677.06" as="sourcePoint" />
            <mxPoint x="1000" y="505.06" as="targetPoint" />
          </mxGeometry>
        </mxCell>
        <mxCell id="ba0Gs8wTOZ9VH8hJFde4-98" value="Data Base Server" style="image;aspect=fixed;perimeter=ellipsePerimeter;html=1;align=center;shadow=0;dashed=0;spacingTop=3;image=img/lib/active_directory/database_server.svg;" vertex="1" parent="1">
          <mxGeometry x="1585" y="706.0600000000001" width="102.98" height="125.59" as="geometry" />
        </mxCell>
        <mxCell id="ba0Gs8wTOZ9VH8hJFde4-100" value="Employee PC" style="shape=mxgraph.cisco.computers_and_peripherals.laptop;html=1;pointerEvents=1;dashed=0;fillColor=#036897;strokeColor=#ffffff;strokeWidth=2;verticalLabelPosition=bottom;verticalAlign=top;align=center;outlineConnect=0;" vertex="1" parent="1">
          <mxGeometry x="540" y="278.09000000000003" width="90" height="61" as="geometry" />
        </mxCell>
        <mxCell id="ba0Gs8wTOZ9VH8hJFde4-101" value="Employee PC" style="shape=mxgraph.cisco.computers_and_peripherals.laptop;html=1;pointerEvents=1;dashed=0;fillColor=#036897;strokeColor=#ffffff;strokeWidth=2;verticalLabelPosition=bottom;verticalAlign=top;align=center;outlineConnect=0;" vertex="1" parent="1">
          <mxGeometry x="982" y="765.06" width="90" height="61" as="geometry" />
        </mxCell>
        <mxCell id="ba0Gs8wTOZ9VH8hJFde4-102" value="Employee PC" style="fontColor=#0066CC;verticalAlign=top;verticalLabelPosition=bottom;labelPosition=center;align=center;html=1;outlineConnect=0;fillColor=#CCCCCC;strokeColor=#6881B3;gradientColor=none;gradientDirection=north;strokeWidth=2;shape=mxgraph.networks.pc;" vertex="1" parent="1">
          <mxGeometry x="517" y="374.06" width="100" height="70" as="geometry" />
        </mxCell>
        <mxCell id="ba0Gs8wTOZ9VH8hJFde4-103" value="" style="endArrow=none;html=1;rounded=0;entryX=0;entryY=0.5;entryDx=0;entryDy=0;entryPerimeter=0;exitX=0.999;exitY=0.725;exitDx=0;exitDy=0;exitPerimeter=0;" edge="1" parent="1" source="ba0Gs8wTOZ9VH8hJFde4-72" target="ba0Gs8wTOZ9VH8hJFde4-102">
          <mxGeometry width="50" height="50" relative="1" as="geometry">
            <mxPoint x="480" y="440" as="sourcePoint" />
            <mxPoint x="530" y="390" as="targetPoint" />
          </mxGeometry>
        </mxCell>
        <mxCell id="ba0Gs8wTOZ9VH8hJFde4-104" value="" style="endArrow=none;html=1;rounded=0;exitX=0.5;exitY=1;exitDx=0;exitDy=0;entryX=0.5;entryY=0.07;entryDx=0;entryDy=0;entryPerimeter=0;" edge="1" parent="1" source="ba0Gs8wTOZ9VH8hJFde4-24" target="ba0Gs8wTOZ9VH8hJFde4-85">
          <mxGeometry width="50" height="50" relative="1" as="geometry">
            <mxPoint x="1190" y="695.06" as="sourcePoint" />
            <mxPoint x="1240" y="645.06" as="targetPoint" />
          </mxGeometry>
        </mxCell>
        <mxCell id="ba0Gs8wTOZ9VH8hJFde4-105" value="" style="fontColor=#0066CC;verticalAlign=top;verticalLabelPosition=bottom;labelPosition=center;align=center;html=1;outlineConnect=0;fillColor=#CCCCCC;strokeColor=#6881B3;gradientColor=none;gradientDirection=north;strokeWidth=2;shape=mxgraph.networks.security_camera;" vertex="1" parent="1">
          <mxGeometry x="1560" y="647.06" width="77" height="49" as="geometry" />
        </mxCell>
        <mxCell id="ba0Gs8wTOZ9VH8hJFde4-106" value="" style="endArrow=none;html=1;rounded=0;entryX=0;entryY=1;entryDx=0;entryDy=0;entryPerimeter=0;exitX=1;exitY=0.5;exitDx=0;exitDy=0;" edge="1" parent="1" source="ba0Gs8wTOZ9VH8hJFde4-33" target="ba0Gs8wTOZ9VH8hJFde4-105">
          <mxGeometry width="50" height="50" relative="1" as="geometry">
            <mxPoint x="1460" y="475.06" as="sourcePoint" />
            <mxPoint x="1510" y="425.06" as="targetPoint" />
          </mxGeometry>
        </mxCell>
        <mxCell id="ba0Gs8wTOZ9VH8hJFde4-107" value="" style="endArrow=none;html=1;rounded=0;entryX=0.55;entryY=0.95;entryDx=0;entryDy=0;entryPerimeter=0;exitX=0.598;exitY=0.05;exitDx=0;exitDy=0;exitPerimeter=0;" edge="1" parent="1" source="ba0Gs8wTOZ9VH8hJFde4-72" target="ba0Gs8wTOZ9VH8hJFde4-71">
          <mxGeometry width="50" height="50" relative="1" as="geometry">
            <mxPoint x="440" y="230" as="sourcePoint" />
            <mxPoint x="490" y="180" as="targetPoint" />
          </mxGeometry>
        </mxCell>
      </root>
    </mxGraphModel>
  </diagram>
</mxfile>
